<?xml version="1.0" encoding="UTF-8"?>
<svg xmlns="http://www.w3.org/2000/svg" xmlns:xlink="http://www.w3.org/1999/xlink" width="1920" height="1080" viewBox="0 0 1920 1080">
<defs>
<g>
<g id="glyph-0-0">
</g>
<g id="glyph-0-1">
<path d="M 0.109375 -1.046875 L 0.109375 -1.375 L 1.265625 -1.375 L 1.265625 -1.046875 Z "/>
</g>
<g id="glyph-0-2">
<path d="M 0.171875 0 L 0.171875 -0.1875 L 0.21875 -0.1875 C 0.320312 -0.1875 0.410156 -0.203125 0.484375 -0.234375 C 0.554688 -0.273438 0.59375 -0.363281 0.59375 -0.5 L 0.59375 -2.6875 C 0.59375 -2.8125 0.554688 -2.890625 0.484375 -2.921875 C 0.410156 -2.960938 0.320312 -2.984375 0.21875 -2.984375 L 0.171875 -2.984375 L 0.171875 -3.171875 L 1.421875 -3.171875 C 1.785156 -3.171875 2.054688 -3.085938 2.234375 -2.921875 C 2.410156 -2.753906 2.5 -2.523438 2.5 -2.234375 C 2.5 -2.066406 2.460938 -1.90625 2.390625 -1.75 C 2.316406 -1.59375 2.191406 -1.46875 2.015625 -1.375 C 1.835938 -1.28125 1.601562 -1.234375 1.3125 -1.234375 L 1.03125 -1.234375 L 1.03125 -0.484375 C 1.03125 -0.347656 1.066406 -0.265625 1.140625 -0.234375 C 1.210938 -0.203125 1.300781 -0.1875 1.40625 -0.1875 L 1.546875 -0.1875 L 1.546875 0 Z M 1.28125 -1.4375 C 1.539062 -1.4375 1.726562 -1.492188 1.84375 -1.609375 C 1.96875 -1.734375 2.03125 -1.9375 2.03125 -2.21875 C 2.03125 -2.46875 1.976562 -2.648438 1.875 -2.765625 C 1.769531 -2.890625 1.59375 -2.953125 1.34375 -2.953125 L 1.03125 -2.953125 L 1.03125 -1.4375 Z "/>
</g>
<g id="glyph-0-3">
<path d="M 0.171875 0 L 0.171875 -0.1875 L 0.21875 -0.1875 C 0.320312 -0.1875 0.410156 -0.203125 0.484375 -0.234375 C 0.554688 -0.265625 0.59375 -0.347656 0.59375 -0.484375 L 0.59375 -2.6875 C 0.59375 -2.8125 0.554688 -2.890625 0.484375 -2.921875 C 0.410156 -2.960938 0.320312 -2.984375 0.21875 -2.984375 L 0.171875 -2.984375 L 0.171875 -3.171875 L 1.359375 -3.171875 C 2.117188 -3.171875 2.5 -2.882812 2.5 -2.3125 C 2.5 -2.15625 2.46875 -2.019531 2.40625 -1.90625 C 2.34375 -1.800781 2.257812 -1.71875 2.15625 -1.65625 C 2.0625 -1.59375 1.957031 -1.539062 1.84375 -1.5 L 2.453125 -0.546875 C 2.535156 -0.421875 2.609375 -0.328125 2.671875 -0.265625 C 2.742188 -0.210938 2.828125 -0.1875 2.921875 -0.1875 L 2.9375 -0.1875 L 2.9375 0 L 2.875 0 C 2.6875 0 2.539062 -0.0078125 2.4375 -0.03125 C 2.34375 -0.0507812 2.265625 -0.0859375 2.203125 -0.140625 C 2.140625 -0.203125 2.070312 -0.289062 2 -0.40625 L 1.40625 -1.390625 L 1.03125 -1.390625 L 1.03125 -0.484375 C 1.03125 -0.347656 1.066406 -0.265625 1.140625 -0.234375 C 1.210938 -0.203125 1.300781 -0.1875 1.40625 -0.1875 L 1.453125 -0.1875 L 1.453125 0 Z M 1.34375 -1.609375 C 1.601562 -1.609375 1.78125 -1.664062 1.875 -1.78125 C 1.976562 -1.894531 2.03125 -2.066406 2.03125 -2.296875 C 2.03125 -2.535156 1.976562 -2.703125 1.875 -2.796875 C 1.769531 -2.898438 1.59375 -2.953125 1.34375 -2.953125 L 1.03125 -2.953125 L 1.03125 -1.609375 Z "/>
</g>
<g id="glyph-0-4">
<path d="M 0.171875 0 L 0.171875 -0.1875 L 0.21875 -0.1875 C 0.320312 -0.1875 0.410156 -0.203125 0.484375 -0.234375 C 0.554688 -0.273438 0.59375 -0.363281 0.59375 -0.5 L 0.59375 -2.6875 C 0.59375 -2.8125 0.554688 -2.890625 0.484375 -2.921875 C 0.410156 -2.960938 0.320312 -2.984375 0.21875 -2.984375 L 0.171875 -2.984375 L 0.171875 -3.171875 L 1.359375 -3.171875 C 1.742188 -3.171875 2.03125 -3.101562 2.21875 -2.96875 C 2.40625 -2.84375 2.5 -2.644531 2.5 -2.375 C 2.5 -2.175781 2.445312 -2.019531 2.34375 -1.90625 C 2.238281 -1.800781 2.109375 -1.722656 1.953125 -1.671875 L 1.953125 -1.65625 C 2.148438 -1.625 2.3125 -1.539062 2.4375 -1.40625 C 2.5625 -1.28125 2.625 -1.097656 2.625 -0.859375 C 2.625 -0.285156 2.242188 0 1.484375 0 Z M 1.34375 -1.765625 C 1.601562 -1.765625 1.78125 -1.8125 1.875 -1.90625 C 1.976562 -2 2.03125 -2.15625 2.03125 -2.375 C 2.03125 -2.59375 1.976562 -2.742188 1.875 -2.828125 C 1.769531 -2.910156 1.585938 -2.953125 1.328125 -2.953125 L 1.03125 -2.953125 L 1.03125 -1.765625 Z M 1.46875 -0.21875 C 1.71875 -0.21875 1.894531 -0.265625 2 -0.359375 C 2.101562 -0.460938 2.15625 -0.632812 2.15625 -0.875 C 2.15625 -1.101562 2.109375 -1.269531 2.015625 -1.375 C 1.921875 -1.488281 1.742188 -1.546875 1.484375 -1.546875 L 1.03125 -1.546875 L 1.03125 -0.21875 Z "/>
</g>
<g id="glyph-0-5">
<path d="M 1.09375 0.046875 C 0.800781 0.046875 0.582031 -0.0078125 0.4375 -0.125 C 0.289062 -0.238281 0.21875 -0.390625 0.21875 -0.578125 C 0.21875 -0.671875 0.242188 -0.742188 0.296875 -0.796875 C 0.347656 -0.847656 0.425781 -0.875 0.53125 -0.875 C 0.539062 -0.757812 0.566406 -0.644531 0.609375 -0.53125 C 0.648438 -0.425781 0.710938 -0.335938 0.796875 -0.265625 C 0.878906 -0.203125 0.988281 -0.171875 1.125 -0.171875 C 1.320312 -0.171875 1.476562 -0.21875 1.59375 -0.3125 C 1.707031 -0.414062 1.765625 -0.554688 1.765625 -0.734375 C 1.765625 -0.835938 1.742188 -0.925781 1.703125 -1 C 1.660156 -1.082031 1.585938 -1.15625 1.484375 -1.21875 C 1.390625 -1.28125 1.253906 -1.347656 1.078125 -1.421875 C 0.804688 -1.535156 0.601562 -1.664062 0.46875 -1.8125 C 0.332031 -1.96875 0.265625 -2.164062 0.265625 -2.40625 C 0.265625 -2.570312 0.304688 -2.710938 0.390625 -2.828125 C 0.472656 -2.953125 0.585938 -3.046875 0.734375 -3.109375 C 0.878906 -3.179688 1.046875 -3.21875 1.234375 -3.21875 C 1.492188 -3.21875 1.695312 -3.164062 1.84375 -3.0625 C 1.988281 -2.957031 2.0625 -2.84375 2.0625 -2.71875 C 2.0625 -2.625 2.03125 -2.550781 1.96875 -2.5 C 1.90625 -2.445312 1.820312 -2.421875 1.71875 -2.421875 C 1.71875 -2.515625 1.703125 -2.601562 1.671875 -2.6875 C 1.640625 -2.78125 1.585938 -2.851562 1.515625 -2.90625 C 1.441406 -2.957031 1.34375 -2.984375 1.21875 -2.984375 C 1.039062 -2.984375 0.90625 -2.9375 0.8125 -2.84375 C 0.71875 -2.757812 0.671875 -2.640625 0.671875 -2.484375 C 0.671875 -2.367188 0.691406 -2.269531 0.734375 -2.1875 C 0.773438 -2.101562 0.847656 -2.03125 0.953125 -1.96875 C 1.054688 -1.90625 1.191406 -1.835938 1.359375 -1.765625 C 1.617188 -1.660156 1.820312 -1.535156 1.96875 -1.390625 C 2.113281 -1.253906 2.1875 -1.070312 2.1875 -0.84375 C 2.1875 -0.5625 2.085938 -0.34375 1.890625 -0.1875 C 1.691406 -0.03125 1.425781 0.046875 1.09375 0.046875 Z "/>
</g>
</g>
</defs>
<g fill="rgb(100%, 100%, 100%)" fill-opacity="1">
<use xlink:href="#glyph-0-0" x="30" y="24.750977"/>
<use xlink:href="#glyph-0-0" x="31" y="24.750977"/>
<use xlink:href="#glyph-0-1" x="32" y="24.750977"/>
<use xlink:href="#glyph-0-0" x="33" y="24.750977"/>
<use xlink:href="#glyph-0-2" x="34" y="24.750977"/>
<use xlink:href="#glyph-0-3" x="37" y="24.750977"/>
<use xlink:href="#glyph-0-4" x="40" y="24.750977"/>
<use xlink:href="#glyph-0-5" x="43" y="24.750977"/>
</g>
</svg>
